<mxfile host="app.diagrams.net" agent="Mozilla/5.0 (Windows NT 10.0; Win64; x64) AppleWebKit/537.36 (KHTML, like Gecko) Chrome/127.0.0.0 Safari/537.36" version="24.7.6">
  <diagram name="PÃ¡gina-1" id="CpzzdcXkVdEAqgGtS11j">
    <mxGraphModel dx="1434" dy="746" grid="1" gridSize="10" guides="1" tooltips="1" connect="1" arrows="1" fold="1" page="1" pageScale="1" pageWidth="827" pageHeight="1169" math="0" shadow="0">
      <root>
        <mxCell id="0" />
        <mxCell id="1" parent="0" />
        <mxCell id="hg1lhqMoHbv1mb3yhYTq-7" style="edgeStyle=orthogonalEdgeStyle;rounded=0;orthogonalLoop=1;jettySize=auto;html=1;entryX=0.5;entryY=0;entryDx=0;entryDy=0;" edge="1" parent="1" source="hg1lhqMoHbv1mb3yhYTq-1" target="hg1lhqMoHbv1mb3yhYTq-3">
          <mxGeometry relative="1" as="geometry" />
        </mxCell>
        <mxCell id="hg1lhqMoHbv1mb3yhYTq-1" value="Inicio" style="ellipse;whiteSpace=wrap;html=1;" vertex="1" parent="1">
          <mxGeometry x="320" y="130" width="120" height="80" as="geometry" />
        </mxCell>
        <mxCell id="hg1lhqMoHbv1mb3yhYTq-2" value="Fim" style="ellipse;whiteSpace=wrap;html=1;" vertex="1" parent="1">
          <mxGeometry x="327.5" y="470" width="105" height="70" as="geometry" />
        </mxCell>
        <mxCell id="hg1lhqMoHbv1mb3yhYTq-3" value="x &amp;lt;- 20&lt;div&gt;y &amp;lt;- 5&lt;/div&gt;&lt;div&gt;z &amp;lt; - x + y&lt;/div&gt;" style="rounded=0;whiteSpace=wrap;html=1;" vertex="1" parent="1">
          <mxGeometry x="320" y="250" width="120" height="60" as="geometry" />
        </mxCell>
        <mxCell id="hg1lhqMoHbv1mb3yhYTq-9" style="edgeStyle=orthogonalEdgeStyle;rounded=0;orthogonalLoop=1;jettySize=auto;html=1;entryX=0.5;entryY=0;entryDx=0;entryDy=0;" edge="1" parent="1" source="hg1lhqMoHbv1mb3yhYTq-6" target="hg1lhqMoHbv1mb3yhYTq-2">
          <mxGeometry relative="1" as="geometry" />
        </mxCell>
        <mxCell id="hg1lhqMoHbv1mb3yhYTq-6" value="z" style="shape=display;whiteSpace=wrap;html=1;" vertex="1" parent="1">
          <mxGeometry x="320" y="360" width="120" height="60" as="geometry" />
        </mxCell>
        <mxCell id="hg1lhqMoHbv1mb3yhYTq-8" style="edgeStyle=orthogonalEdgeStyle;rounded=0;orthogonalLoop=1;jettySize=auto;html=1;entryX=0;entryY=0;entryDx=60;entryDy=0;entryPerimeter=0;" edge="1" parent="1" source="hg1lhqMoHbv1mb3yhYTq-3" target="hg1lhqMoHbv1mb3yhYTq-6">
          <mxGeometry relative="1" as="geometry" />
        </mxCell>
      </root>
    </mxGraphModel>
  </diagram>
</mxfile>
